<?xml version="1.0" encoding="utf-8"?>
<!-- Generator: Adobe Illustrator 16.0.0, SVG Export Plug-In . SVG Version: 6.00 Build 0)  -->
<!DOCTYPE svg PUBLIC "-//W3C//DTD SVG 1.1//EN" "http://www.w3.org/Graphics/SVG/1.1/DTD/svg11.dtd">
<svg version="1.1" id="Layer_1" xmlns="http://www.w3.org/2000/svg" xmlns:xlink="http://www.w3.org/1999/xlink" x="0px" y="0px"
	 width="100.0004883px" height="100.0004883px" viewBox="0 0 100.0004883 100.0004883"
	 enable-background="new 0 0 100.0004883 100.0004883" xml:space="preserve">
<g>
	<path fill="none" stroke="#F79421" stroke-width="0.6551703" stroke-linecap="round" stroke-miterlimit="10" d="
		M24.9599609,86.6977539c0,0,0.6000977,1.7109375-0.8354492,4.6933594c-1.4360352,2.9814453-4.765625,3.3828125-4.765625,3.3828125"
		/>
	<path fill="none" stroke="#F79421" stroke-width="0.6551703" stroke-linecap="round" stroke-miterlimit="10" d="
		M32.1918945,86.2172852c0,0-0.3725586,6.5390625-1.6303711,8.6738281
		c-1.9658203,3.3339844-6.5898438,3.9892578-6.5898438,3.9892578"/>
	<path fill="#BAE4EB" d="M49.1967773,95.4077148c-15.6855469,2.8408203-30.7036133-7.5722656-33.5444336-23.2578125
		s7.5722656-30.7041016,23.2587891-33.5449219c15.6860352-2.8398438,44.7407227,5.0317383,47.581543,20.7158203
		C89.3305664,75.0073242,64.8833008,92.5678711,49.1967773,95.4077148z"/>
	<path fill="#FBB03C" d="M94.4243164,60.465332l-7.0029297-1.0283203l6.2119141-3.3476563
		c-4.7382813-0.9931641-10.5527344-2.5224609-10.6748047-2.5009766c-1.2392578,0.2246094-1.7441406,3.1552734-1.1298828,6.546875
		c0.6132813,3.3916016,2.1152344,5.9599609,3.3544922,5.7353516C85.3198242,65.8442383,90.3325195,62.9995117,94.4243164,60.465332z
		"/>
	<polyline fill="#FFFFFF" points="27.8198242,30.0742188 26.6923828,35.6743164 25.0908203,40.4477539 66.1479492,46.8901367 
		79.6879883,44.8144531 79.4682617,34.5507813 68.9868164,29.6362305 	"/>
	<path fill="#BAE4EB" d="M10.6582031,58.0522461c-0.9018555-0.2880859-1.3984375-1.2529297-1.1108398-2.1523438
		c0.2890625-0.9013672,1.2524414-1.3994141,2.1538086-1.1103516c0.9008789,0.2890625,6.7788086,2.9736328,6.4897461,3.875
		C17.9023438,59.5649414,11.5576172,58.340332,10.6582031,58.0522461z"/>
	<path fill="#BAE4EB" d="M11.7949219,62.6518555c-0.909668,0.2587891-1.8588867-0.2675781-2.1181641-1.1777344
		c-0.2578125-0.9121094,0.269043-1.8574219,1.1777344-2.1181641c0.9101563-0.2597656,7.2895508-1.2832031,7.5493164-0.3720703
		C18.6630859,59.8920898,12.7041016,62.3911133,11.7949219,62.6518555z"/>
	<path fill="#BAE4EB" d="M12.8979492,53.7924805c-0.5473633-0.7714844-0.3671875-1.8408203,0.4023438-2.3876953
		c0.7700195-0.5478516,1.8388672-0.3701172,2.3891602,0.4013672c0.5483398,0.7705078,3.6455078,6.4433594,2.875,6.9902344
		C17.7944336,59.3442383,13.4477539,54.5620117,12.8979492,53.7924805z"/>
	<path fill="none" stroke="#010101" stroke-width="0.7924613" stroke-linecap="round" stroke-miterlimit="10" d="
		M67.4477539,53.8129883c0.3603516-0.8115234,1.1015625-1.4365234,2.0419922-1.6064453
		c1.5087891-0.2724609,2.9511719,0.7275391,3.2226563,2.234375"/>
	
		<path fill="none" stroke="#86CAEA" stroke-width="0.6551703" stroke-linecap="round" stroke-linejoin="round" stroke-miterlimit="10" d="
		M40.5786133,64.300293l-8.3632813,1.5146484c-1.9609375,0.3564453-3.8349609-0.9453125-4.1899414-2.9033203l0,0
		c-0.3554688-1.9599609,0.9462891-3.8330078,2.9047852-4.1865234l8.3632813-1.5166016"/>
	
		<path fill="none" stroke="#86CAEA" stroke-width="0.6551703" stroke-linecap="round" stroke-linejoin="round" stroke-miterlimit="10" d="
		M41.8618164,71.3920898l-8.3632813,1.5136719c-1.9589844,0.3554688-3.8344727-0.9423828-4.1894531-2.9023438l0,0
		c-0.3540039-1.9589844,0.9453125-3.8320313,2.90625-4.1884766l8.3632813-1.5146484"/>
	
		<path fill="none" stroke="#86CAEA" stroke-width="0.6551703" stroke-linecap="round" stroke-linejoin="round" stroke-miterlimit="10" d="
		M43.1459961,78.4829102l-8.3618164,1.5146484c-1.9594727,0.3554688-3.8364258-0.9443359-4.1904297-2.9023438l0,0
		c-0.3540039-1.9609375,0.9458008-3.8339844,2.9047852-4.1894531l8.3632813-1.5136719"/>
	<path d="M75.4545898,41.6054688c0,0-1.203125-1.3417969-2.6474609-10.1420898
		c-1.1181641-6.8164063-0.8896484-27.9580078-0.6503906-29.1616211c0.234375-1.2006836-0.0693359-1.1884766-0.0693359-1.1884766
		S46.4394531-0.4677734,24.296875,4.6074219c0,0-0.3535156,0.0380859-0.0625,1.0048828
		c0,0,4.6572266,27.0825195,2.3422852,28.7167969c0,0,7.5507813-1.6479492,16.527832,2.4350586
		c6.4169922,2.9174805,12.2124023,3.0317383,12.2124023,3.0317383S49.9814453,40.375,43.1469727,37.5126953
		c-7.7299805-3.2333984-15.8735352-2.4707031-15.8735352-2.4707031s-11.3198242,0.7719727-10.8500977,7.1621094
		c0,0,1.4160156,8.2192383,17.5693359,3.4980469c3.6674805-1.0717773,6.2626953-2.5107422,15.2802734,0.1928711
		c9.0166016,2.7036133,2.2509766,0.7041016,2.2509766,0.7041016c18.4140625,6.7128906,37.1611328,2.9907227,35.1650391-6.7290039
		c0,0-1.1494141-5.3452148-13.1523438-8.5986328c0,0,0.6640625,4.3374023,1.1630859,6.9204102
		C75.0297852,39.9023438,75.4545898,41.6054688,75.4545898,41.6054688z"/>
	<g>
		<path fill="#EE2A7B" d="M26.5234375,34.3613281c0,0,7.6469727-1.6450195,16.625,2.4360352
			c2.0727539,0.9433594,4.0756836,1.5888672,5.84375,2.0366211c0.8754883,0.0292969,1.7734375,0.0556641,2.7094727,0.0742188
			c1.3085938,0.0273438,2.5654297,0.0400391,3.7724609,0.0400391c8.9482422,0,15.0947266-0.7392578,18.3896484-2.1987305
			c-0.3144531-1.3554688-0.65625-3.0761719-1.0126953-5.2524414c-0.0966797-0.590332-0.1845703-1.2963867-0.2617188-2.0786133
			c-0.5654297,0.1113281-6.1298828,2.5854492-20.7412109,2.2836914
			c-17.8740234-0.3662109-24.4570313-2.8110352-24.7299805-2.8564453
			C27.2553711,31.7890625,27.1254883,33.9370117,26.5234375,34.3613281z"/>
	</g>
</g>
</svg>
